<?xml version="1.0" standalone="no"?>
<!DOCTYPE svg PUBLIC "-//W3C//DTD SVG 20010904//EN"
 "http://www.w3.org/TR/2001/REC-SVG-20010904/DTD/svg10.dtd">
<svg version="1.0" xmlns="http://www.w3.org/2000/svg"
 width="747.000000pt" height="747.000000pt" viewBox="0 0 747.000000 747.000000"
 preserveAspectRatio="xMidYMid meet">
<metadata>
Created by potrace 1.14, written by Peter Selinger 2001-2017
</metadata>
<g transform="translate(0.000000,747.000000) scale(0.100000,-0.100000)"
fill="#000000" stroke="none">
<path d="M7364 6268 c-16 -4 -40 -9 -54 -12 -14 -2 -45 -9 -70 -15 -25 -5 -58
-12 -75 -15 -16 -3 -131 -26 -255 -52 -124 -25 -238 -48 -255 -51 -43 -7 -65
-21 -65 -42 0 -15 64 -79 178 -177 13 -12 23 -26 21 -32 -2 -6 -49 -59 -104
-119 -55 -59 -125 -135 -155 -168 -31 -33 -79 -85 -107 -115 -28 -30 -61 -66
-73 -80 l-21 -24 -35 39 c-20 22 -50 55 -66 73 -105 114 -287 88 -355 -49 -20
-42 -78 -163 -163 -344 -92 -196 -120 -257 -167 -355 -28 -58 -58 -122 -68
-143 l-18 -37 -23 32 c-13 18 -27 38 -31 43 -5 6 -53 70 -107 142 -84 112
-107 137 -149 158 -109 54 -231 14 -286 -93 -11 -21 -144 -351 -296 -732 -152
-382 -280 -699 -285 -703 -4 -5 -105 121 -224 281 -188 251 -223 293 -265 316
l-49 26 -478 -3 -479 -2 -48 -28 c-116 -69 -141 -220 -52 -324 64 -75 69 -76
507 -75 l387 1 30 -37 c17 -20 107 -140 201 -267 95 -126 180 -241 191 -255
10 -14 51 -68 90 -120 95 -127 107 -140 158 -163 83 -37 186 -15 246 54 21 23
66 123 139 309 60 151 113 279 118 285 4 5 8 16 8 25 0 8 6 26 13 40 7 14 84
206 172 427 88 222 162 403 165 402 3 0 57 -70 120 -155 63 -86 127 -165 142
-175 74 -53 178 -54 252 -2 43 30 62 64 170 293 27 58 75 159 107 225 31 66
68 145 82 175 14 30 50 108 81 173 l57 118 44 -45 c71 -71 166 -90 251 -51 34
16 128 113 383 394 30 32 210 228 273 295 l46 50 84 -74 c45 -41 94 -85 108
-97 25 -23 55 -30 64 -15 5 8 12 56 21 147 4 33 8 76 10 95 2 19 7 67 11 105
3 39 8 77 9 85 2 8 6 56 10 105 4 50 9 97 10 105 2 8 6 49 10 90 3 41 8 83 11
92 3 10 0 26 -6 38 -11 21 -38 24 -96 8z"/>
<path d="M1097 4864 c-1 -1 -25 -5 -52 -7 -244 -24 -497 -145 -683 -326 -176
-171 -301 -411 -346 -666 -16 -95 -14 -352 4 -435 45 -208 124 -372 254 -525
74 -88 130 -138 231 -209 148 -103 274 -155 490 -202 62 -13 370 -12 470 2
120 17 275 55 362 90 36 14 67 23 71 20 3 -4 6 -289 7 -634 1 -574 2 -630 18
-659 87 -163 331 -165 409 -3 21 42 22 59 23 280 l0 235 455 1 c250 0 486 4
524 8 153 17 277 77 387 186 61 60 84 92 116 160 23 47 44 101 49 120 4 19 8
37 9 40 20 85 27 263 14 334 -4 23 -10 57 -13 78 -27 172 -169 364 -326 440
-78 38 -159 62 -245 73 -89 11 -1227 8 -1258 -4 -37 -14 -102 -59 -152 -106
-51 -47 -107 -86 -172 -119 -88 -44 -145 -63 -278 -92 -77 -17 -215 -21 -320
-10 -421 46 -717 372 -698 768 9 195 80 362 211 494 276 281 752 292 1152 28
114 -75 133 -83 192 -79 137 8 233 136 204 270 -3 11 -5 26 -5 32 -2 23 -73
93 -150 147 -178 126 -454 233 -675 262 -50 6 -274 13 -279 8z m2218 -2055
c101 -28 147 -98 153 -235 7 -151 -26 -227 -121 -276 -41 -21 -49 -22 -510
-23 -258 0 -471 2 -476 5 -4 3 -7 125 -7 273 l0 267 460 0 c302 0 475 -4 501
-11z"/>
</g>
</svg>
